<svg width="607" height="731" viewBox="0 0 607 731" fill="none" xmlns="http://www.w3.org/2000/svg">
<path d="M96.7955 13.0627C108.047 22.4216 116.926 33.6538 125.468 45.4538C126.222 46.4734 126.976 47.4931 127.753 48.5436C144.215 71.467 158.258 97.0239 170.468 122.454C171.499 124.594 172.53 126.735 173.562 128.876C175.273 132.43 176.982 135.984 178.688 139.54C181.579 145.562 184.502 151.562 187.53 157.516C191.592 165.517 195.284 173.686 199.02 181.842C202.986 190.476 207.127 199.002 211.468 207.454C211.343 206.452 211.218 205.451 211.089 204.419C210.997 203.684 210.906 202.949 210.811 202.192C210.557 200.162 210.3 198.132 210.043 196.103C209.622 192.777 209.206 189.451 208.793 186.124C208.622 184.749 208.448 183.374 208.273 181.999C205.374 159.264 204.13 136.662 204.207 113.75C204.219 110.314 204.212 106.878 204.2 103.442C204.146 84.2931 204.439 65.319 208.78 46.5788C208.998 45.6168 209.216 44.6549 209.441 43.6638C213.046 28.2448 217.916 12.9484 231.468 3.4538C237.292 0.0471647 242.875 -0.581199 249.468 0.4538C265.515 5.74059 274.182 19.0996 281.53 33.4304C290.446 51.338 294.928 69.787 298.843 89.3405C299.229 91.2619 299.623 93.1815 300.03 95.0983C302.344 106.09 303.316 117.292 304.468 128.454C304.577 129.491 304.685 130.528 304.797 131.597C307.613 159.394 307.597 187.69 304.468 215.454C304.361 216.468 304.254 217.482 304.143 218.527C302.067 238.138 299.407 257.601 293.468 276.454C293.184 277.444 292.901 278.434 292.608 279.454C286.246 301.333 277.316 329.414 256.394 341.669C248.73 345.649 241.148 346.817 232.62 344.77C221.692 341.066 213.747 334.283 205.468 326.454C204.7 325.762 203.931 325.069 203.14 324.356C177.189 299.995 159.95 264.452 143.468 233.454C142.745 232.102 142.745 232.102 142.007 230.723C135.309 218.196 129.063 205.494 122.989 192.654C120.455 187.323 117.881 182.011 115.31 176.698C113.249 172.439 111.194 168.177 109.138 163.915C108.05 161.661 106.961 159.406 105.872 157.153C104.442 154.192 103.016 151.23 101.593 148.266C100.959 146.957 100.959 146.957 100.311 145.621C99.743 144.434 99.743 144.434 99.1632 143.223C98.8333 142.539 98.5035 141.854 98.1637 141.148C97.4679 139.454 97.4679 139.454 97.4679 137.454C96.8079 137.454 96.1479 137.454 95.4679 137.454C95.6496 138.065 95.8314 138.676 96.0187 139.305C99.8596 153.29 101.191 167.868 102.593 182.266C102.668 183.04 102.744 183.813 102.822 184.61C104.28 200.53 104.709 216.41 104.718 232.391C104.719 233.438 104.719 234.484 104.72 235.562C104.641 313.078 104.641 313.078 84.3624 336.653C77.0823 343.573 70.6343 345.973 60.6944 345.852C51.0294 344.659 43.4215 337.745 37.4679 330.454C21.1851 307.536 13.3225 278.957 8.82676 251.545C8.49267 249.598 8.10915 247.66 7.72178 245.723C-5.62049 177.906 -4.64576 80.6829 34.6866 21.0241C41.0101 12.0955 49.0074 4.03895 59.7179 0.7663C74.1166 -0.869919 85.5183 4.1434 96.7955 13.0627Z" fill="#1A1A18"/>
<path d="M165.969 386.141C166.854 386.143 167.739 386.144 168.651 386.146C186.473 386.2 203.605 387.152 220.469 393.454C221.469 393.812 222.469 394.17 223.5 394.54C240.032 400.888 252.596 411.294 260.192 427.254C263.788 436.261 263.947 448.051 261.031 457.329C256.077 468.865 245.911 476.456 234.574 481.11C198.042 495.01 151.308 491.112 115.492 476.375C108.043 472.983 100.92 468.472 94.4689 463.454C94.9536 464.002 95.4383 464.549 95.9376 465.114C108.813 480.342 114.857 498.007 118.469 517.454C118.664 518.495 118.858 519.537 119.059 520.61C125.278 555.835 123.932 597.37 109.469 630.454C108.744 632.161 108.744 632.161 108.004 633.903C104.484 641.519 99.6784 647.924 94.4689 654.454C96.7427 653.317 98.3856 651.891 100.344 650.266C131.366 626.072 183.198 625.039 220.427 629.277C239.718 631.853 266.291 636.352 279.031 652.516C283.661 659.521 284.287 666.183 283.469 674.454C279.995 689.163 268.121 700.126 255.738 707.833C237.757 718.542 218.114 725.25 197.469 728.454C195.906 728.71 195.906 728.71 194.312 728.971C183.779 730.557 173.418 730.852 162.781 730.829C161.899 730.828 161.016 730.828 160.107 730.828C147.161 730.797 134.942 730.198 122.469 726.454C121.031 726.052 119.594 725.651 118.156 725.251C78.726 713.868 46.9847 687.8 27.1857 651.957C17.2563 633.371 11.1511 614.161 7.46888 593.454C7.33756 592.746 7.20623 592.038 7.07093 591.308C3.33536 570.32 4.16254 546.457 7.46888 525.454C7.65193 524.255 7.83497 523.056 8.02357 521.821C11.1176 504.441 16.1406 487.052 24.4689 471.454C24.8118 470.8 25.1547 470.146 25.5079 469.472C32.5642 456.079 41.0293 444.465 51.4689 433.454C52.3622 432.496 53.2555 431.538 54.1759 430.551C72.4699 411.324 95.6739 398.927 121.031 391.704C122.06 391.41 123.089 391.116 124.148 390.813C138.149 386.973 151.542 386.081 165.969 386.141Z" fill="#1A1A18"/>
<path d="M546.468 15.4538C554.557 21.894 557.676 29.4425 559.468 39.4538C559.827 43.5709 559.846 47.6363 559.781 51.7663C559.784 52.7789 559.787 53.7915 559.79 54.8347C559.691 69.1813 557.02 82.6046 553.156 96.3288C552.941 97.0989 552.727 97.8689 552.506 98.6623C547.708 115.758 541.405 132.126 534.468 148.454C533.976 149.615 533.485 150.777 532.978 151.974C524.421 172.05 515.142 191.77 504.795 210.987C503.41 213.561 502.037 216.142 500.664 218.723C490.58 237.553 479.616 255.88 467.468 273.454C466.991 274.147 466.515 274.84 466.023 275.554C459.854 284.5 453.527 293.18 446.468 301.454C445.522 302.585 444.577 303.716 443.632 304.848C430.665 320.299 416.753 335.189 397.468 342.454C396.458 342.887 395.447 343.32 394.406 343.766C385.969 345.741 378.833 344.533 371.406 340.27C363.6 335.052 359.811 327.876 357.593 318.891C347.95 265.683 380.85 204.27 404.353 158.621C405.157 157.06 405.955 155.496 406.751 153.931C420.92 126.077 436.479 98.2071 455.217 73.133C456.588 71.2928 457.938 69.4382 459.289 67.5828C476.467 44.1352 512.48 -4.65654 546.468 15.4538Z" fill="#1A1A18"/>
<path d="M454.357 386.073C494.68 386.085 529.414 401.799 558.469 429.454C559.115 430.047 559.76 430.64 560.426 431.251C573.75 443.857 582.8 460.376 590.645 476.737C591.314 478.132 591.997 479.521 592.684 480.907C598.507 493.162 601.933 507.169 604.469 520.454C604.738 521.849 604.738 521.849 605.013 523.271C606.942 534.741 606.865 546.228 606.844 557.829C606.844 558.897 606.843 559.965 606.843 561.065C606.812 576.513 606.44 591.433 602.469 606.454C602.287 607.166 602.104 607.878 601.917 608.611C600.677 613.315 599.127 617.882 597.469 622.454C597.19 623.254 596.912 624.053 596.625 624.877C588.062 649.427 575.495 669.81 557.469 688.454C556.548 689.452 556.548 689.452 555.609 690.47C533.719 713.66 497.585 729.787 465.883 730.814C462.119 730.878 458.358 730.867 454.594 730.829C453.807 730.825 453.02 730.822 452.209 730.818C440.724 730.756 429.661 730.233 418.469 727.454C416.995 727.112 416.995 727.112 415.492 726.763C412.784 726.08 410.135 725.285 407.469 724.454C405.837 724.002 405.837 724.002 404.172 723.54C370.767 713.576 344.328 688.904 325.469 660.454L323.887 658.11C315.369 644.783 309.697 629.621 305.469 614.454C304.933 612.697 304.933 612.696 304.387 610.903C295.87 581.717 295.274 547.192 301.469 517.454L302.005 514.874C305.799 497.275 312.026 481.312 320.469 465.454C320.786 464.848 321.102 464.242 321.429 463.618C333.834 440.056 352.425 422.048 374.469 407.454C375.289 406.909 376.108 406.364 376.953 405.802C388.45 398.529 401.276 393.597 414.469 390.454C415.519 390.181 415.519 390.181 416.591 389.902C428.448 386.873 440.093 386.077 452.281 386.079C452.966 386.077 453.652 386.075 454.357 386.073ZM519.469 460.454C516.469 462.454 516.469 462.454 514.41 464.153C500.616 475.683 484.029 484.136 466.007 486.252C436.786 488.579 411.88 482.148 389.344 463.017L386.469 460.454C386.469 462.454 386.469 462.454 388.691 465.153C401.057 479.547 406.598 497.747 410.031 516.073C410.18 516.883 410.324 517.669 410.469 518.454C412.902 531.075 413.71 543.475 413.722 556.303C413.721 557.098 413.72 557.87 413.719 558.642C413.707 571.171 413.229 583.321 410.807 595.65C410.585 596.731 410.371 597.78 410.156 598.829C406.571 616.425 401.636 632.779 391.54 647.837C389.649 650.638 387.88 653.377 386.469 656.454C387.811 655.466 389.142 654.462 390.469 653.454C406.373 640.363 423.93 630.864 444.953 630.118C472.073 629.741 496.558 635.941 516.957 654.985L518.469 656.454L519.469 654.454L517.676 652.751C495.18 629.34 492.276 590.222 492.107 559.753C492.1 558.245 492.101 558.244 492.094 556.767C491.948 539.47 493.068 522.653 497.408 505.838C497.641 505.006 497.867 504.199 498.094 503.392C501.562 490.905 506.358 478.312 514.406 468.017C516.556 465.583 518.119 463.421 519.469 460.454Z" fill="#1A1A18"/>
</svg>
