<svg width="1099" height="218" viewBox="0 0 1099 218" fill="none" xmlns="http://www.w3.org/2000/svg">
<path d="M732.099 28.9081C735.659 31.1961 737.57 33.4359 739.474 37.2206C740.615 45.5282 736.436 53.4794 731.951 60.2753C726.71 67.1805 720.635 73.3308 711.849 74.8456C708.414 74.2095 707.731 73.946 705.474 71.5331C703.474 68.2206 703.474 68.2206 703.572 65.9198C704.749 62.4005 706.726 59.6699 708.912 56.7206C711.616 53.0389 713.985 49.5839 715.474 45.2206C693.055 47.9458 662.487 63.4889 646.899 79.8766C645.474 81.2206 645.474 81.2206 643.474 81.2206C643.233 81.9786 642.992 82.7365 642.744 83.5175C641.271 86.6547 640.007 87.5523 637.162 89.4706C620.34 102.343 607.545 125.414 603.721 146.15C602.852 153.454 602.865 160.61 606.474 167.221C613.406 173.228 620.688 173.835 629.474 173.221C665.112 169.865 698.345 156.167 730.474 141.221C731.82 140.596 733.166 139.972 734.511 139.348C766.941 124.286 799.39 108.997 830.956 92.1864C835.602 89.7143 840.274 87.3066 844.978 84.9472C846.096 84.381 847.214 83.8149 848.366 83.2316C850.551 82.1267 852.74 81.0322 854.936 79.9499C861.195 76.7663 865.813 73.4526 870.474 68.2206C873.076 65.8081 875.772 63.5187 878.474 61.2206C879.31 60.4845 880.145 59.7485 881.006 58.9901C891.755 49.7698 902.141 44.1414 916.474 45.2206C920.686 46.7455 921.994 47.5004 924.474 51.2206C924.324 54.2396 924.028 55.6982 921.807 57.7948C918.97 59.529 916.556 59.959 913.287 60.5331C903.509 62.6635 897.674 67.6178 890.908 74.7792C888.249 77.447 885.45 79.8883 882.604 82.3537C879.133 85.3969 875.774 88.5575 872.412 91.7206C871.744 92.3458 871.075 92.971 870.387 93.6151C847.671 114.94 832.438 139.278 823.474 169.221C823.23 169.926 822.985 170.631 822.732 171.357C821.285 175.927 821.242 180.584 821.162 185.346C821.144 186.027 821.126 186.709 821.108 187.412C821.115 192.084 822.11 195.215 824.474 199.221C833.995 200.401 839.844 197.676 847.474 192.221C848.454 191.521 848.454 191.521 849.453 190.807C859.403 183.599 868.729 175.846 877.474 167.221C878.652 166.062 878.652 166.062 879.853 164.881C891.698 152.485 908.481 130.093 908.849 112.158C908.41 107.544 907.84 106.34 904.474 103.221C902.188 101.592 899.873 100.048 897.498 98.5526C895.474 97.2206 895.474 97.2206 893.474 95.2206C893.037 91.9081 893.037 91.9081 893.474 88.2206C896.31 84.5751 898.99 82.3677 903.474 81.2206C911.741 80.2398 917.322 83.6723 924.224 87.9081C937.806 95.8305 955.965 90.1042 970.184 86.9472C973.321 86.2545 976.462 85.5927 979.607 84.9394C1007.33 79.0919 1034.82 71.8271 1061.85 63.3456C1062.56 63.1228 1063.28 62.9 1064.01 62.6705C1078.9 58.5353 1078.9 58.5353 1092.12 51.0687C1094.47 49.2206 1094.47 49.2206 1097.47 49.2206C1097.8 50.2106 1098.13 51.2006 1098.47 52.2206C1090.37 59.878 1082.19 67.2521 1073.47 74.2206C1072.58 75.036 1071.69 75.8514 1070.77 76.6916C1067.52 79.3964 1064.35 80.5232 1060.26 81.6854C1059.58 81.8841 1058.89 82.0828 1058.19 82.2875C1055.97 82.9261 1053.76 83.5426 1051.54 84.1581C1049.99 84.5976 1048.45 85.038 1046.9 85.4794C1042.43 86.7508 1037.96 87.9917 1033.47 89.2206C1032.34 89.5321 1031.21 89.8435 1030.04 90.1645C1024.43 91.6881 1018.81 93.1388 1013.17 94.5395C1010.47 95.2216 1007.78 95.943 1005.1 96.6698C994.846 99.3608 984.642 101.416 974.166 102.978C973.163 103.129 972.161 103.279 971.128 103.434C966.059 104.186 960.988 104.91 955.91 105.597C954.013 105.869 952.117 106.14 950.221 106.412C949.357 106.52 948.493 106.629 947.603 106.74C941.705 107.607 937.138 109.434 932.474 113.221C930.958 115.444 930.958 115.444 930.412 117.971C918.384 156.995 890.167 189.507 854.484 209.26C843.299 215.131 830.367 219.862 817.724 216.486C811.455 214.21 806.27 211.597 803.072 205.584C795.66 188.804 794.617 168.681 800.791 151.326C805.074 140.445 810.694 130.002 818.474 121.221C815.608 121.848 813.191 122.744 810.578 124.071C809.82 124.454 809.062 124.836 808.281 125.229C807.466 125.645 806.651 126.061 805.81 126.49C804.045 127.382 802.279 128.273 800.513 129.165C799.589 129.633 798.665 130.101 797.713 130.583C781.991 138.542 766.234 146.342 750.156 153.559C746.531 155.19 742.919 156.848 739.307 158.506C735.785 160.121 732.26 161.727 728.733 163.332C727.017 164.115 725.301 164.9 723.587 165.688C702.295 175.469 680.564 183.009 657.474 187.221C656.421 187.417 655.368 187.612 654.283 187.814C634.454 191.33 610.062 194.133 592.474 182.221C585.85 176.318 581.65 169.922 581.006 160.951C580.972 159.437 580.962 157.922 580.974 156.408C580.979 155.592 580.983 154.776 580.987 153.935C581.36 140.178 586.083 127.72 591.474 115.221C590.945 115.525 590.416 115.83 589.871 116.144C572.285 126.244 554.463 135.862 536.474 145.221C535.812 145.566 535.149 145.911 534.467 146.266C499.074 164.666 460.908 183.862 421.475 191.221C420.463 191.413 420.463 191.413 419.431 191.61C399.778 195.166 375.49 196.392 357.818 185.892C352.407 182.033 349.039 177.333 346.475 171.221C343.838 153.319 350.215 135.902 358.475 120.221C357.584 120.697 356.693 121.173 355.776 121.663C348.973 125.296 342.166 128.918 335.346 132.517C316.856 142.268 316.856 142.268 298.475 152.221C295.852 153.654 293.228 155.086 290.604 156.516C288.936 157.425 287.267 158.334 285.6 159.245C249.265 179.105 249.265 179.105 232.475 184.221C231.53 184.514 230.585 184.807 229.612 185.109C214.942 189.543 196.247 194.785 181.475 188.096C175.384 184.231 171.685 179.119 169.475 172.221C169.161 169.388 168.998 166.855 169.037 164.033C169.044 163.257 169.051 162.481 169.058 161.681C169.42 148.109 173.195 135.052 176.818 122.056C178.76 114.788 179.351 107.734 179.475 100.221C159.38 105.656 143.755 113.517 126.816 125.558C124.57 127.152 122.314 128.73 120.053 130.303C106.071 140.05 92.5269 150.26 79.3456 161.064C75.1742 164.479 70.9445 167.815 66.6884 171.123C63.6945 173.455 60.7396 175.819 57.83 178.256C46.1819 187.951 31.0188 199.716 15.287 200.721C10.6756 200.116 7.17777 199.081 3.47452 196.221C-0.0995679 190.748 -0.539042 184.629 0.474517 178.221C2.86163 170.938 6.40948 164.225 10.0995 157.533C10.8923 156.091 10.8923 156.091 11.7011 154.621C22.2111 135.739 35.213 118.427 49.4745 102.221C49.9645 101.657 50.4545 101.093 50.9594 100.512C65.679 83.6444 65.679 83.6444 73.7323 81.6659C77.017 81.4599 79.2142 82.0682 82.037 83.7206C83.7077 86.6261 83.8894 88.5884 83.2636 91.8769C80.9351 98.7931 77.166 104.501 70.8495 108.221C63.3522 113.058 59.2557 120.733 54.5102 128.087C52.1729 131.685 49.7948 135.253 47.4081 138.818C46.5128 140.156 45.6174 141.494 44.7221 142.832C44.2769 143.497 43.8318 144.162 43.3731 144.847C42.0643 146.805 40.7582 148.764 39.4535 150.725C39.0401 151.346 38.6267 151.967 38.2007 152.607C37.3953 153.82 36.5915 155.033 35.7893 156.248C34.0664 158.853 32.3225 161.434 30.5092 163.977C29.9499 164.767 29.3906 165.556 28.8144 166.369C28.3322 167.028 27.85 167.687 27.3532 168.367C26.2593 170.225 26.2593 170.225 26.8283 172.461C27.1482 173.332 27.1482 173.332 27.4745 174.221C33.8208 171.465 38.7265 168.354 43.7636 163.635C47.1762 160.596 50.7695 157.852 54.412 155.096C59.6782 151.108 64.9246 147.102 70.1237 143.027C77.8218 136.995 85.6099 131.106 93.507 125.337C97.2327 122.615 100.942 119.879 104.596 117.06C126.894 99.884 157.079 79.4318 186.475 82.2206C193.365 84.272 198.586 88.1648 202.475 94.2206C205.008 101.822 202.771 109.101 200.85 116.596C200.302 118.815 199.755 121.036 199.209 123.256C198.631 125.577 198.053 127.899 197.475 130.221C196.33 134.82 195.207 139.424 194.1 144.033C193.706 145.595 193.706 145.595 193.304 147.189C191.68 153.996 190.173 161.247 191.475 168.221C193.159 170.612 193.159 170.612 195.475 172.221C200.967 172.728 205.936 171.968 211.287 170.658C212.017 170.48 212.747 170.302 213.499 170.119C236.626 164.223 257.861 152.952 278.619 141.451C284.567 138.156 290.557 134.944 296.555 131.741C307.924 125.671 319.269 119.558 330.596 113.408C334.604 111.232 338.617 109.067 342.635 106.908C347.647 104.213 352.649 101.5 357.641 98.7685C359.505 97.7501 361.372 96.7362 363.242 95.7274C375.765 89.0417 375.765 89.0417 385.799 79.1737C389.238 75.1652 393.561 72.482 398.869 72.0058C403.816 72.3257 406.947 73.5831 410.475 77.2206C412.114 80.4987 412.018 82.5988 411.475 86.2206C409.591 88.0336 407.601 89.3855 405.42 90.8222C403.283 92.155 403.283 92.155 402.037 94.7206C400.298 97.5036 399.001 98.2422 396.225 99.9081C380.138 110.286 371.576 138.333 367.475 156.221C366.944 161.835 366.996 166.546 370.475 171.221C377.149 175.449 382.62 175.823 390.412 175.658C391.522 175.643 392.633 175.629 393.777 175.614C402.955 175.405 411.568 174.392 420.475 172.221C421.3 172.027 422.125 171.834 422.975 171.635C437.427 168.192 450.885 163.167 464.475 157.221C465.507 156.774 466.539 156.328 467.602 155.869C501.183 141.336 534.286 125.233 566.037 107.018C573.199 102.913 580.444 98.9846 587.724 95.0956C608.421 84.6598 608.421 84.6598 626.724 70.7284C638.575 59.9214 652.233 51.4645 666.474 44.2206C667.216 43.8357 667.958 43.4507 668.722 43.0541C715.086 19.1506 715.086 19.1506 732.099 28.9081Z" fill="#1C1C1A"/>
<path d="M443.474 0.220632C445.905 2.09078 447.115 3.50202 448.474 6.22063C449.077 12.2495 447.738 16.2716 444.474 21.2206C442.212 23.8063 440.715 24.9834 437.33 25.6308C433.08 25.9056 431.008 25.5801 427.412 23.1581C424.93 19.3961 424.796 17.6655 425.474 13.2206C428.497 4.35375 433.699 -1.1983 443.474 0.220632Z" fill="#1E1E1C"/>
</svg>
