<svg width="1076" height="1221" viewBox="0 0 1076 1221" fill="none" xmlns="http://www.w3.org/2000/svg">
<path d="M342.653 43.7614C344.114 44.964 345.593 46.1458 347.072 47.3264C353.478 52.4639 359.555 57.9138 365.556 63.5104C367.3 65.1284 369.056 66.732 370.814 68.3342C376.363 73.4079 381.793 78.4178 386.619 84.2013C388.383 86.2502 390.261 88.1307 392.189 90.0256C396.07 93.8614 399.644 97.8807 403.189 102.026C404.095 103.068 405.001 104.109 405.908 105.151C412.401 112.632 418.637 120.269 424.697 128.104C426.3 130.168 427.916 132.222 429.533 134.276C445.674 154.811 460.916 176.149 475.189 198.026C475.586 198.634 475.984 199.242 476.393 199.868C487.616 217.073 498.555 234.451 509.189 252.026C509.892 253.186 509.892 253.186 510.61 254.371C524.29 276.986 537.458 299.863 550.189 323.026C550.712 323.976 551.235 324.927 551.774 325.907C555.269 332.267 558.736 338.643 562.189 345.026C562.75 346.062 563.312 347.098 563.89 348.165C572.504 364.088 580.891 380.115 589.152 396.223C589.679 397.251 589.679 397.251 590.217 398.299C590.563 398.975 590.91 399.65 591.267 400.347C593.675 405.039 596.118 409.712 598.577 414.378C610.808 437.595 622.598 461.101 633.803 484.83C636.907 491.388 640.083 497.91 643.279 504.424C643.744 505.372 644.209 506.32 644.689 507.297C645.656 509.267 646.623 511.238 647.59 513.208C654.727 527.753 661.805 542.31 668.56 557.036C672.648 565.927 676.9 574.731 681.189 583.526C687.894 597.276 694.389 611.11 700.792 625.004C702.842 629.437 704.918 633.858 707.002 638.276C707.334 638.979 707.666 639.683 708.008 640.408C708.734 641.948 709.462 643.487 710.189 645.026C709.492 635.333 708.597 625.666 707.631 615.998C707.48 614.478 707.329 612.957 707.179 611.437C706.784 607.458 706.389 603.48 705.992 599.502C704.844 587.978 703.7 576.453 702.572 564.926C702.337 562.532 702.101 560.137 701.864 557.743C700.367 542.607 699.452 527.465 698.689 512.276C698.626 511.034 698.564 509.792 698.499 508.512C698.176 502.096 697.858 495.681 697.546 489.264C697.328 484.799 697.102 480.333 696.86 475.869C692.659 398.178 693.483 319.373 702.189 242.026C702.268 241.316 702.347 240.607 702.428 239.877C706.777 200.914 713.295 161.455 725.189 124.026C725.664 122.529 725.664 122.529 726.149 121.002C736.325 89.3965 749.94 58.2488 773.189 34.0256C774.031 33.1206 774.873 32.2157 775.74 31.2834C794.724 11.4473 818.325 1.3469 845.586 0.682063C864.298 0.484203 880.526 4.62324 897.189 13.0256C898.357 13.6095 899.525 14.1935 900.728 14.7951C922.135 26.2716 939.938 44.596 954.189 64.0256C954.603 64.5789 955.017 65.1322 955.444 65.7023C976.062 93.2628 991.79 124.671 1004.56 156.526C1005.05 157.741 1005.54 158.957 1006.04 160.209C1008.99 167.666 1011.64 175.173 1014.1 182.796C1015.01 185.497 1016 188.098 1017.13 190.713C1020.17 198.099 1022.22 205.853 1024.45 213.511C1025.12 215.796 1025.8 218.079 1026.47 220.362C1027.51 223.843 1028.53 227.329 1029.54 230.817C1030.21 233.113 1030.9 235.405 1031.59 237.697C1047.56 291.593 1057.77 348.488 1064.15 404.282C1064.74 409.424 1065.4 414.545 1066.16 419.666C1067.35 427.911 1068.24 436.175 1069.06 444.463C1069.19 445.722 1069.19 445.722 1069.32 447.007C1077.7 531.662 1080.11 616.911 1063.76 807.917C1063.18 812.041 1062.65 816.171 1062.13 820.303C1060.43 833.738 1058.41 847.023 1055.73 860.297C1054.92 864.395 1054.18 868.505 1053.43 872.616C1049.34 895.145 1044.62 917.508 1039.46 939.817C1039 941.831 1038.54 943.846 1038.08 945.861C1034.93 959.604 1031.21 973.071 1026.98 986.518C1025.9 989.941 1024.86 993.374 1023.82 996.807C1013.72 1029.75 1002.08 1061.92 987.189 1093.03C986.779 1093.89 986.368 1094.76 985.945 1095.65C973.533 1121.67 958.44 1146.48 939.189 1168.03C938.398 1168.93 937.606 1169.83 936.791 1170.76C934.618 1173.21 932.416 1175.62 930.189 1178.03C929.581 1178.69 928.972 1179.35 928.346 1180.03C914.442 1194.59 896.904 1205.83 878.189 1213.03C877.28 1213.4 876.372 1213.78 875.435 1214.17C847.926 1225.12 816.07 1221.33 789.353 1209.9C787.963 1209.28 786.575 1208.66 785.189 1208.03C784.51 1207.72 783.83 1207.41 783.13 1207.09C762.994 1197.81 744.717 1185.1 728.034 1170.58C726.66 1169.42 725.26 1168.29 723.848 1167.18C716.314 1161.2 709.54 1154.65 702.781 1147.82C700.933 1145.96 699.078 1144.1 697.221 1142.24C691.334 1136.34 685.567 1130.4 680.189 1124.03C679.18 1122.87 678.168 1121.71 677.154 1120.56C664.149 1105.67 651.775 1090.42 640.029 1074.51C638.257 1072.12 636.476 1069.73 634.693 1067.34C614.905 1040.78 596.683 1013.14 579.189 985.026C578.279 983.565 578.279 983.565 577.351 982.075C568.31 967.541 559.498 952.893 550.946 938.066C549.152 934.961 547.349 931.862 545.545 928.764C531.232 904.141 517.601 879.149 504.189 854.026C503.858 853.406 503.527 852.787 503.187 852.149C485.814 819.634 469.046 786.822 452.544 753.858C451.644 752.06 450.743 750.262 449.842 748.464C442.127 733.061 434.564 717.595 427.189 702.026C426.273 700.093 425.357 698.161 424.44 696.229C424.032 695.369 423.625 694.51 423.205 693.624C420.011 686.893 416.796 680.177 413.439 673.526C407.772 662.294 402.357 650.936 396.907 639.598C395.35 636.359 393.789 633.122 392.228 629.885C387.079 619.185 382.04 608.442 377.155 597.618C373.693 589.987 369.973 582.501 366.189 575.026C366.3 576.077 366.411 577.129 366.525 578.212C367.558 588.03 367.558 588.03 368.592 597.848C368.678 598.671 368.765 599.495 368.854 600.344C369.033 602.04 369.211 603.737 369.389 605.434C369.81 609.452 370.236 613.47 370.68 617.486C372.293 632.183 373.492 646.914 374.689 661.651C374.744 662.329 374.8 663.007 374.857 663.706C378.22 705.074 378.22 705.074 379.079 723.709C379.198 726.214 379.328 728.718 379.458 731.223C381.199 765.272 381.404 799.316 381.435 833.402C381.439 836.855 381.447 840.308 381.455 843.761C381.51 870.257 381.145 896.597 379.189 923.026C379.057 924.922 378.924 926.819 378.792 928.716C378.478 933.113 378.124 937.507 377.752 941.901C377.69 942.65 377.627 943.4 377.563 944.173C376.321 959.147 374.869 974.094 373.189 989.026C373.071 990.091 372.952 991.156 372.83 992.254C371.359 1005.31 369.382 1018.16 366.774 1031.04C366.126 1034.35 365.536 1037.67 364.951 1041C356.053 1090.7 340.868 1144.32 307.189 1183.03C306.581 1183.78 305.972 1184.53 305.346 1185.31C289.53 1204.34 265.116 1217.14 240.643 1219.81C207.654 1222.65 178.883 1211.28 153.662 1190.19C150.342 1187.28 147.237 1184.22 144.189 1181.03C143.364 1180.2 142.539 1179.38 141.689 1178.53C140.864 1177.7 140.039 1176.88 139.189 1176.03C138.702 1175.57 138.215 1175.12 137.713 1174.65C86.3043 1125.8 59.5857 1041.85 43.0638 974.435C42.2284 971.178 41.3303 967.946 40.4118 964.711C37.5133 954.493 35.0686 944.216 32.8143 933.838C32.6226 932.961 32.431 932.084 32.2335 931.181C28.3846 913.514 25.0769 895.775 22.0364 877.953C21.3307 873.826 20.5989 869.703 19.8602 865.581C14.7294 836.865 11.2035 808.035 8.18928 779.026C8.03846 777.587 8.03846 777.587 7.88459 776.119C4.65674 745.23 2.75915 714.279 1.33744 683.258C1.24047 681.143 1.14122 679.027 1.0394 676.912C0.0124305 655.246 -0.0105011 633.585 0.00177569 611.901C0.00189528 610.963 0.00201868 610.026 0.0021419 609.061C0.00683315 579.959 0.326753 550.936 2.0246 521.877C2.19959 518.847 2.36561 515.817 2.5301 512.786C3.71068 491.167 5.03714 469.644 7.80988 448.163C8.71743 440.658 9.38843 433.122 10.0994 425.595C10.7815 418.543 11.6392 411.544 12.6739 404.535C13.1935 400.997 13.6787 397.456 14.1541 393.912C15.9084 380.896 17.704 367.925 20.1893 355.026C20.371 354.082 20.5528 353.139 20.7401 352.167C21.584 347.794 22.4283 343.421 23.2784 339.049C24.8883 330.727 26.3786 322.389 27.7574 314.025C28.9477 306.952 30.5409 300.004 32.1893 293.026C32.6341 291.083 33.0788 289.141 33.5215 287.198C37.334 270.494 41.4504 253.978 46.4295 237.576C47.5648 233.765 48.5924 229.927 49.6268 226.088C51.6603 218.63 53.9615 211.264 56.3143 203.901C56.6513 202.845 56.9883 201.789 57.3355 200.702C59.1479 195.082 61.0683 189.535 63.1893 184.026C63.8876 182.162 64.5855 180.299 65.283 178.436C89.8534 113.368 124.115 43.0626 189.291 10.4748C195.13 7.87693 201.182 6.0382 207.314 4.27557C208.043 4.0644 208.771 3.85324 209.521 3.63568C256.837 -9.29074 306.802 14.1709 342.653 43.7614ZM164.189 64.0256C163.411 64.7526 162.632 65.4796 161.83 66.2287C145.556 81.8098 132.901 102.037 122.367 121.819C121.527 123.393 120.678 124.963 119.824 126.529C107.485 149.164 97.9607 172.816 89.1893 197.026C88.8915 197.844 88.5937 198.663 88.2869 199.507C75.4948 234.803 66.3936 271.372 58.6085 308.057C57.953 311.135 57.2865 314.211 56.6229 317.287C50.6355 345.327 45.9532 373.605 42.1893 402.026C41.9928 403.494 41.7964 404.962 41.5999 406.431C38.1188 432.57 35.4033 458.75 33.1893 485.026C33.0252 486.964 33.0252 486.964 32.8577 488.942C29.6665 527.58 28.8757 566.222 28.9937 604.976C29.0045 609.486 29.0041 613.995 29.0037 618.504C28.4373 657.357 28.4373 657.357 30.9681 696.07C31.2788 698.817 31.3859 701.557 31.4783 704.319C33.2191 746.816 37.8104 789.501 43.8768 831.588C44.0149 832.55 44.153 833.511 44.2953 834.502C45.9828 846.12 47.9963 857.652 50.2598 869.172C51.2467 874.233 52.0983 879.314 52.9393 884.401C54.792 895.301 56.9767 906.131 59.1893 916.963C59.3568 917.789 59.5243 918.614 59.697 919.465C61.9199 930.397 64.404 941.224 67.1893 952.026C67.7601 954.292 68.3304 956.559 68.9002 958.826C72.0933 971.374 75.5123 983.777 79.5545 996.077C80.448 998.82 81.2884 1001.58 82.1268 1004.34C83.9781 1010.37 85.8574 1016.39 87.7518 1022.4C88.1915 1023.81 88.1915 1023.81 88.6402 1025.25C90.2429 1030.32 92.0548 1035.15 94.1893 1040.03C94.9817 1042.07 95.766 1044.11 96.5447 1046.16C102.641 1062.1 109.204 1077.94 117.156 1093.05C118.296 1095.23 119.407 1097.42 120.517 1099.62C138.419 1134.71 165.621 1174.45 204.724 1187.63C224.446 1193.68 243.605 1192.23 262.189 1183.03C291.537 1166.74 308.219 1133.54 319.189 1103.03C319.591 1101.93 319.994 1100.83 320.408 1099.7C321.76 1095.83 323.002 1091.95 324.189 1088.03C324.562 1086.8 324.562 1086.8 324.942 1085.55C342.414 1027.04 348.281 965.056 351.082 904.288C351.157 902.713 351.236 901.138 351.319 899.564C352.331 880.213 352.344 860.874 352.32 841.503C352.314 836.985 352.317 832.467 352.323 827.95C352.362 792.306 351.756 756.721 349.506 721.143C349.373 719.025 349.242 716.906 349.112 714.787C346.942 679.514 344.243 644.307 340.627 609.151C340.527 608.17 340.427 607.19 340.324 606.18C339.125 594.528 337.647 582.956 335.852 571.381C335.064 566.276 334.458 561.157 333.877 556.026C332.611 545.434 330.94 534.921 329.189 524.401C329.064 523.64 328.938 522.879 328.809 522.096C327.357 513.339 325.756 504.668 323.74 496.02C322.918 491.55 322.829 487.388 324.189 483.026C326.439 480.088 326.439 480.088 329.189 478.026C329.891 477.427 330.592 476.829 331.314 476.213C335.804 474.359 340.417 474.185 345.189 475.026C350.385 477.837 352.796 481.079 355.326 486.264C355.868 487.327 355.868 487.327 356.42 488.411C357.588 490.713 358.733 493.025 359.877 495.338C360.684 496.942 361.492 498.546 362.302 500.149C367.952 511.378 373.434 522.686 378.785 534.06C381.252 539.27 383.768 544.457 386.28 549.646C391.24 559.896 396.176 570.158 401.08 580.435C403.475 585.452 405.881 590.463 408.303 595.467C413.883 607.006 419.389 618.571 424.752 630.213C429.262 639.995 433.944 649.668 438.802 659.282C442.271 666.155 445.635 673.072 448.939 680.026C451.944 686.348 454.97 692.653 458.127 698.901C461.409 705.398 464.556 711.955 467.689 718.526C476.81 737.612 486.154 756.623 496.109 775.29C499.029 780.779 501.876 786.302 504.705 791.838C505.116 792.642 505.527 793.445 505.95 794.273C507.623 797.545 509.297 800.818 510.963 804.095C515.54 813.092 520.208 822.011 525.222 830.774C527.266 834.349 529.197 837.949 531.002 841.651C539.081 858.097 548.353 873.988 557.415 889.906C559.294 893.21 561.167 896.516 563.041 899.822C571.234 914.261 579.612 928.575 588.218 942.772C589.955 945.638 591.686 948.508 593.416 951.379C601.464 964.733 609.57 978.03 618.189 991.026C618.91 992.116 619.63 993.206 620.373 994.33C655.225 1047.05 692.668 1102.72 741.189 1144.03C742.099 1144.82 743.009 1145.62 743.947 1146.45C752.913 1154.26 762.402 1161.28 772.189 1168.03C772.766 1168.42 773.344 1168.82 773.938 1169.23C797.155 1185 825.435 1194.47 853.564 1190.28C872.101 1186.54 886.945 1177.07 901.189 1165.03C902.056 1164.3 902.922 1163.58 903.814 1162.83C908.746 1158.58 913.026 1154.02 917.189 1149.03C917.938 1148.16 918.687 1147.3 919.459 1146.42C956.406 1103.36 977.479 1047.49 994.528 994.091C995.229 991.901 995.939 989.714 996.649 987.526C1000.32 976.138 1003.56 964.67 1006.56 953.088C1006.8 952.186 1007.03 951.284 1007.28 950.355C1018.04 908.929 1025.58 867.058 1032.26 824.804C1032.86 821.018 1033.51 817.242 1034.18 813.467C1046.95 737.021 1049.14 658.384 1048.19 581.026C1048.18 580.062 1048.17 579.099 1048.16 578.106C1047.85 550.694 1046.14 523.364 1044.19 496.026C1044.12 495.045 1044.05 494.065 1043.98 493.054C1040.53 444.432 1034.77 396.014 1026.19 348.026C1025.95 346.708 1025.95 346.708 1025.71 345.363C1021.54 322.037 1016.77 298.919 1011.13 275.905C1010.1 271.646 1009.1 267.379 1008.1 263.112C1006.78 257.448 1005.41 251.808 1003.81 246.213C1003.6 245.47 1003.39 244.726 1003.18 243.961C1002.52 241.647 1001.86 239.336 1001.19 237.026C1000.88 235.956 1000.88 235.956 1000.57 234.865C985.668 182.675 966.516 129.134 934.189 85.0256C933.787 84.4676 933.384 83.9096 932.97 83.3346C915.69 59.4779 892.244 36.5713 862.314 30.6506C841.737 27.9713 821.889 30.8326 805.064 43.7131C803.414 45.1219 801.791 46.5619 800.189 48.0256C799.712 48.46 799.236 48.8944 798.744 49.342C786.413 60.7183 777.939 74.2737 770.189 89.0256C769.856 89.6585 769.522 90.2914 769.179 90.9435C751.615 124.847 743.286 163.586 737.189 201.026C737.079 201.705 736.968 202.384 736.854 203.084C727.079 263.6 724.656 324.682 724.925 385.895C724.944 391.113 724.948 396.33 724.952 401.548C724.98 437.918 725.614 474.097 727.939 510.401C728.026 511.768 728.112 513.136 728.198 514.503C731.516 566.897 736.113 619.149 743.898 671.077C744.345 674.067 744.782 677.058 745.221 680.049C747.055 692.385 749.145 704.645 751.615 716.871C754.671 732.546 754.671 732.546 751.752 739.401C747.419 743.839 742.224 746.167 736.002 746.526C731.481 745.933 729.715 744.9 726.189 742.026C724.329 739.397 722.941 736.592 721.533 733.701C721.112 732.869 720.69 732.037 720.256 731.179C719.353 729.391 718.458 727.599 717.568 725.804C716.193 723.033 714.796 720.273 713.392 717.515C710.963 712.735 708.556 707.944 706.158 703.147C704.695 700.224 703.225 697.303 701.756 694.383C696.524 683.95 691.506 673.454 686.727 662.806C683.98 656.702 681.088 650.697 678.06 644.728C674.751 638.198 671.643 631.579 668.548 624.946C663.056 613.18 657.489 601.454 651.814 589.776C647.312 580.504 642.91 571.2 638.735 561.777C636.131 555.942 633.316 550.225 630.445 544.519C626.201 536.079 622.073 527.583 617.939 519.088C617.091 517.346 616.243 515.605 615.394 513.863C611.432 505.725 607.486 497.579 603.594 489.407C597.886 477.42 591.995 465.528 586.064 453.651C585.44 452.398 585.44 452.398 584.803 451.121C579.933 441.356 574.972 431.648 569.868 422.003C567.108 416.783 564.385 411.545 561.697 406.287C561.338 405.585 560.979 404.882 560.608 404.158C559.882 402.736 559.155 401.315 558.429 399.893C551.704 386.74 544.829 373.692 537.687 360.76C535.425 356.63 533.208 352.475 530.987 348.323C524.768 336.703 518.388 325.196 511.786 313.789C510.062 310.804 508.348 307.814 506.635 304.822C489.353 274.683 471.286 245.051 452.189 216.026C451.807 215.444 451.425 214.863 451.032 214.264C418.631 165.047 381.644 110.564 334.732 74.0138C331.947 71.8358 329.299 69.5283 326.627 67.2131C308.574 52.223 287.675 40.0816 265.077 33.572C263.31 33.0605 261.557 32.4998 259.806 31.9357C222.774 22.6176 190.239 38.8693 164.189 64.0256Z" fill="#1B1B19"/>
</svg>
